<svg width="67" height="67" viewBox="0 0 67 67" fill="none" xmlns="http://www.w3.org/2000/svg">
<path d="M44 35.5C44.8284 35.5 45.5 34.8284 45.5 34C45.5 33.1716 44.8284 32.5 44 32.5V35.5ZM21.9393 32.9393C21.3536 33.5251 21.3536 34.4749 21.9393 35.0607L31.4853 44.6066C32.0711 45.1924 33.0208 45.1924 33.6066 44.6066C34.1924 44.0208 34.1924 43.0711 33.6066 42.4853L25.1213 34L33.6066 25.5147C34.1924 24.9289 34.1924 23.9792 33.6066 23.3934C33.0208 22.8076 32.0711 22.8076 31.4853 23.3934L21.9393 32.9393ZM44 32.5H23V35.5H44V32.5Z" fill="#E5E9F0"/>
</svg>
